<?xml version="1.0" encoding="utf-8"?>
<!-- Generator: Adobe Illustrator 16.0.0, SVG Export Plug-In . SVG Version: 6.00 Build 0)  -->
<!DOCTYPE svg PUBLIC "-//W3C//DTD SVG 1.0//EN" "http://www.w3.org/TR/2001/REC-SVG-20010904/DTD/svg10.dtd">
<svg version="1.0" id="Layer_1" xmlns="http://www.w3.org/2000/svg" xmlns:xlink="http://www.w3.org/1999/xlink" x="0px" y="0px"
	 width="26px" height="26px" viewBox="0 0 26 26" enable-background="new 0 0 26 26" xml:space="preserve">
<g>
	<g>
		<g>
			<circle cx="4" cy="3" r="1.5"/>
		</g>
		<path d="M7,10c0,0.553-0.447,1-1,1H2c-0.553,0-1-0.447-1-1V6c0-0.553,0.447-1,1-1h3c0.553,0,1,0.447,1,1L7,10z"/>
	</g>
	<g>
		<g>
			<circle cx="22" cy="16" r="1.5"/>
		</g>
		<path d="M25,23c0,0.553-0.447,1-1,1h-4c-0.553,0-1-0.447-1-1l1-4c0-0.553,0.447-1,1-1h3c0.553,0,1,0.447,1,1V23z"/>
	</g>
	<path d="M7,3l4,4v5h14V3H7z M23,10H13V5h10V10z"/>
	<path d="M1,16v9h14v-5l4-4H1z M3,18h10v5H3V18z"/>
</g>
</svg>
