<?xml version="1.0" encoding="utf-8"?>
<!-- Generator: Adobe Illustrator 16.0.0, SVG Export Plug-In . SVG Version: 6.00 Build 0)  -->
<!DOCTYPE svg PUBLIC "-//W3C//DTD SVG 1.1//EN" "http://www.w3.org/Graphics/SVG/1.1/DTD/svg11.dtd">
<svg version="1.1" id="Layer_1" xmlns="http://www.w3.org/2000/svg" xmlns:xlink="http://www.w3.org/1999/xlink" x="0px" y="0px"
	 width="26px" height="26px" viewBox="0 0 26 26" enable-background="new 0 0 26 26" xml:space="preserve">
<g>
	<g>
		<g>
			<path d="M11,8.004C11,4.552,11.783,1.75,17,1v2.834c-1.924,0.229-2.641,1.477-2.674,3.171H17V12h-6V8.004z"/>
		</g>
		<g>
			<path d="M19,8.004C19,4.552,19.783,1.75,25,1v2.834c-1.924,0.229-2.641,1.477-2.674,3.171H25V12h-6V8.004z"/>
		</g>
	</g>
	<polygon points="23,14 23,16 21,16 19,16 19,18 19,19.594 16.52,16.698 15.92,16 15,16 3,16 3,3 9,3 9,1 1,1 1,18 15,18 21,25 
		21,18 25,18 25,14 	"/>
</g>
</svg>
