<?xml version="1.0" encoding="utf-8"?>
<!-- Generator: Adobe Illustrator 16.0.0, SVG Export Plug-In . SVG Version: 6.00 Build 0)  -->
<!DOCTYPE svg PUBLIC "-//W3C//DTD SVG 1.0//EN" "http://www.w3.org/TR/2001/REC-SVG-20010904/DTD/svg10.dtd">
<svg version="1.0" id="Layer_1" xmlns="http://www.w3.org/2000/svg" xmlns:xlink="http://www.w3.org/1999/xlink" x="0px" y="0px"
	 width="26px" height="26px" viewBox="0 0 26 26" enable-background="new 0 0 26 26" xml:space="preserve">
<path d="M13,1C6.372,1,1,6.373,1,13s5.372,12,12,12c6.627,0,12-5.373,12-12S19.627,1,13,1z M3,13C3,7.486,7.486,3,13,3
	c2.397,0,4.6,0.85,6.324,2.262L5.262,19.324C3.85,17.6,3,15.397,3,13z M13,23c-2.397,0-4.6-0.85-6.324-2.262L20.738,6.676
	C22.15,8.4,23,10.603,23,13C23,18.514,18.514,23,13,23z"/>
</svg>
