<?xml version="1.0" encoding="utf-8"?>
<!-- Generator: Adobe Illustrator 16.0.0, SVG Export Plug-In . SVG Version: 6.00 Build 0)  -->
<!DOCTYPE svg PUBLIC "-//W3C//DTD SVG 1.0//EN" "http://www.w3.org/TR/2001/REC-SVG-20010904/DTD/svg10.dtd">
<svg version="1.0" id="Layer_1" xmlns="http://www.w3.org/2000/svg" xmlns:xlink="http://www.w3.org/1999/xlink" x="0px" y="0px"
	 width="26px" height="26px" viewBox="0 0 26 26" enable-background="new 0 0 26 26" xml:space="preserve">
<g>
	<path d="M15.393,4.07l0.611,1.374l0.592,1.328l1.445-0.152l1.495-0.157l-0.157,1.496l-0.152,1.446l1.328,0.591l1.375,0.612
		l-0.885,1.217L20.189,13l0.854,1.176l0.886,1.217l-1.375,0.611l-1.328,0.592l0.151,1.445l0.157,1.496L18.04,19.38l-1.446-0.151
		l-0.591,1.328l-0.61,1.373l-1.218-0.885L13,20.191l-1.176,0.854l-1.217,0.885l-0.611-1.373l-0.591-1.328L7.959,19.38l-1.495,0.157
		l0.157-1.496l0.152-1.445l-1.328-0.592L4.07,15.393l0.885-1.217L5.81,13l-0.854-1.176L4.07,10.607l1.375-0.612l1.328-0.591
		L6.621,7.959L6.464,6.463L7.959,6.62l1.446,0.152l0.591-1.328l0.611-1.374l1.217,0.885L13,5.809l1.176-0.854L15.393,4.07 M16.216,1
		L13,3.337L9.784,1L8.169,4.631L4.216,4.215l0.416,3.954L1,9.785L3.337,13L1,16.215l3.632,1.617l-0.416,3.953l3.953-0.416L9.784,25
		L13,22.663L16.216,25l1.615-3.631l3.953,0.416l-0.416-3.953L25,16.215L22.663,13L25,9.785l-3.632-1.617l0.416-3.954l-3.953,0.417
		L16.216,1L16.216,1z" fill="#008833"/>
	<g>
		<path d="M16.535,14.536L16.535,14.536c-1.949,1.95-5.121,1.948-7.07,0l-0.707,0.707c2.342,2.343,6.143,2.343,8.484,0l0,0
			L16.535,14.536z" fill="#008833"/>
	</g>
	<circle cx="11" cy="11" r="1" fill="#008833"/>
	<circle cx="15" cy="11" r="1" fill="#008833"/>
</g>
</svg>
