<?xml version="1.0" encoding="utf-8"?>
<!-- Generator: Adobe Illustrator 16.0.0, SVG Export Plug-In . SVG Version: 6.00 Build 0)  -->
<!DOCTYPE svg PUBLIC "-//W3C//DTD SVG 1.0//EN" "http://www.w3.org/TR/2001/REC-SVG-20010904/DTD/svg10.dtd">
<svg version="1.0" id="Layer_1" xmlns="http://www.w3.org/2000/svg" xmlns:xlink="http://www.w3.org/1999/xlink" x="0px" y="0px"
	 width="26px" height="26px" viewBox="0 0 26 26" enable-background="new 0 0 26 26" xml:space="preserve">
<g>
	<path d="M15.805,2.535l1.113,2.502l0.295,0.664l0.723-0.076l2.726-0.286l-0.287,2.725l-0.075,0.723l0.663,0.295l2.504,1.115
		l-1.61,2.216L21.427,13l0.427,0.588l1.611,2.217l-2.504,1.114l-0.663,0.295l0.075,0.724l0.287,2.725l-2.725-0.286L17.212,20.3
		l-0.295,0.664l-1.112,2.502l-2.218-1.61L13,21.427l-0.588,0.429l-2.216,1.609l-1.113-2.502l-0.295-0.664l-0.723,0.076L5.34,20.661
		l0.287-2.726l0.076-0.723l-0.664-0.295l-2.503-1.115l1.611-2.216L4.573,13l-0.427-0.588l-1.611-2.216l2.503-1.115l0.664-0.295
		L5.626,8.063L5.34,5.339l2.725,0.286l0.723,0.076l0.295-0.664l1.113-2.502l2.216,1.61L13,4.573l0.588-0.428L15.805,2.535 M16.216,1
		L13,3.337L9.784,1L8.169,4.631L4.216,4.215l0.416,3.953L1,9.785L3.337,13L1,16.215l3.632,1.617l-0.416,3.953l3.953-0.416L9.784,25
		L13,22.663L16.216,25l1.615-3.631l3.953,0.416l-0.416-3.953L25,16.215L22.663,13L25,9.785l-3.632-1.617l0.416-3.953l-3.953,0.416
		L16.216,1L16.216,1z"/>
	<g>
		<path d="M9.464,16.536L9.464,16.536c-1.95-1.95-1.949-5.122,0-7.071L8.757,8.758c-2.343,2.343-2.343,6.143,0,8.485l0,0
			L9.464,16.536z"/>
		<path d="M16.535,9.465c1.949,1.949,1.949,5.121,0,7.07l0.707,0.708c2.344-2.343,2.344-6.142,0-8.485L16.535,9.465z"/>
	</g>
	<path d="M13,19.998c-1.104,0-1,0.105-1-0.998l-1-7.5c0-1.105,0.896-2,2-2c1.104,0,2,0.895,2,2L14,19
		C14,20.104,14.104,19.998,13,19.998z"/>
	<circle cx="13" cy="7.5" r="1.5"/>
</g>
</svg>
